# xmcd
#
# Track frame offsets:
# 150
# 16572
# 33072
# 48672
# 64120
# 82797
# 102072
# 113997
# 134472
# 149175
# 163272
#
# Disc length: 2509 seconds
#
#
# Revision: 2
# Processed by: cddbd v1.5.2PL0 Copyright (c) Steve Scherf et al.
# Submitted via: FreeRIP 2.944 
#
DISCID=8e09cb0b
DTITLE=Azúcar Moreno - Carne de melocotón
DYEAR=1988
DGENRE=Pop
TTITLE0=Azúcar Moreno - Aunque me falte el aire
TTITLE1=Azúcar Moreno - Chica vaiven
TTITLE2=Azúcar Moreno - Alerta corazón
TTITLE3=Azúcar Moreno - La chulapona
TTITLE4=Azúcar Moreno - Carne de melocotón
TTITLE5=Azúcar Moreno - Debajo del olivo
TTITLE6=Azúcar Moreno - Limón amargo
TTITLE7=Azúcar Moreno - Labios de amapola
TTITLE8=Azúcar Moreno - Me pones mala
TTITLE9=Azúcar Moreno - Fuí
TTITLE10=Aunque me falte el aire (Lerele mix)
EXTD=
EXTT0=
EXTT1=
EXTT2=
EXTT3=
EXTT4=
EXTT5=
EXTT6=
EXTT7=
EXTT8=
EXTT9=
EXTT10=
PLAYORDER=
